<svg xmlns="http://www.w3.org/2000/svg" viewBox="0 0 53.5 53.5"><defs><style>.cls-1{fill:#231815;}.cls-2{fill:#fff;fill-rule:evenodd;}</style></defs><g id="レイヤー_2" data-name="レイヤー 2"><g id="レイヤー_1-2" data-name="レイヤー 1"><rect class="cls-1" width="53.5" height="53.5" rx="26.75"/><path class="cls-2" d="M26.75,11.25A15.21,15.21,0,0,0,21.94,40.9c.76.14,1-.33,1-.73s0-1.32,0-2.59c-4.24.92-5.13-2-5.13-2a4,4,0,0,0-1.69-2.23c-1.38-.94.11-.92.11-.92A3.22,3.22,0,0,1,18.58,34,3.23,3.23,0,0,0,23,35.22a3.28,3.28,0,0,1,1-2C20.59,32.8,17,31.5,17,25.67a5.89,5.89,0,0,1,1.57-4.09,5.46,5.46,0,0,1,.14-4s1.28-.41,4.19,1.56a14.49,14.49,0,0,1,7.62,0c2.9-2,4.18-1.56,4.18-1.56a5.42,5.42,0,0,1,.15,4,5.92,5.92,0,0,1,1.56,4.09c0,5.84-3.55,7.13-6.94,7.51a3.63,3.63,0,0,1,1,2.81c0,2,0,3.68,0,4.18s.27.88,1.05.73a15.22,15.22,0,0,0-4.82-29.65"/></g></g></svg>