<svg xmlns="http://www.w3.org/2000/svg" viewBox="0 0 53.54 53.54"><defs><style>.cls-1{fill:#fff;}.cls-2{fill:#38393c;}</style></defs><g id="レイヤー_2" data-name="レイヤー 2"><g id="レイヤー_1-2" data-name="レイヤー 1"><rect class="cls-1" x="0.05" y="0.02" width="53.5" height="53.5" rx="26.75"/><path class="cls-2" d="M26.77,53.54A26.77,26.77,0,1,1,53.54,26.77,26.8,26.8,0,0,1,26.77,53.54Zm0-50.13A23.37,23.37,0,1,0,50.14,26.77,23.4,23.4,0,0,0,26.77,3.41Z"/><path class="cls-2" d="M29.89,13.55a37.39,37.39,0,0,1-2.51-6.72v19a1.75,1.75,0,1,1-1.12,0v-19a38,38,0,0,1-2.51,6.74,67.49,67.49,0,0,1-4.61,7.8l1.64,22.36s1.55,1.73,6,1.74h0c4.49,0,6-1.74,6-1.74l1.63-22.36A68.26,68.26,0,0,1,29.89,13.55Z"/></g></g></svg>