<svg xmlns="http://www.w3.org/2000/svg" viewBox="0 0 53.5 53.5"><defs><style>.cls-1{fill:#0096fa;}.cls-2{fill:#fff;}</style></defs><g id="レイヤー_2" data-name="レイヤー 2"><g id="レイヤー_1-2" data-name="レイヤー 1"><rect class="cls-1" width="53.5" height="53.5" rx="26.75"/><path class="cls-2" d="M36.53,17.82A12.87,12.87,0,0,0,28,14.88c-9,0-15.17,7-15.17,7l1.73,2.75s1,.08.45-1.54a10.36,10.36,0,0,1,3-3.23V38.15c-.72.21-1.68.59-1,1.24h5c.65-.66-.38-1-1-1.24V33.83A22,22,0,0,0,28,35.17a13.35,13.35,0,0,0,8.36-2.7,9.14,9.14,0,0,0,3.59-7.25A9.71,9.71,0,0,0,36.53,17.82ZM33.9,31a8.82,8.82,0,0,1-6.25,2.43h0a15.73,15.73,0,0,1-6.77-1.32V18.4a12.72,12.72,0,0,1,6.78-2A8.44,8.44,0,0,1,34,19a8.89,8.89,0,0,1,2.26,6.14A8.05,8.05,0,0,1,33.9,31Z"/></g></g></svg>