<svg xmlns="http://www.w3.org/2000/svg" viewBox="0 0 53.5 53.5"><defs><style>.cls-1{fill:#fff;}.cls-2{fill:#55c500;}</style></defs><g id="レイヤー_2" data-name="レイヤー 2"><g id="レイヤー_1-2" data-name="レイヤー 1"><circle class="cls-1" cx="26.75" cy="26.75" r="26.75" transform="translate(-5.43 6.86) rotate(-13.28)"/><path class="cls-2" d="M39.76,40.78c-2.9,2.79-6.9,3.89-10.77,4.41-6.86.94-16.31-.84-19.17-10.58a20.83,20.83,0,0,1,2-15.9l-1.3-4.79a1.07,1.07,0,0,1,1.26-1.31l4.26,1A15.5,15.5,0,0,1,23.75,10a16.34,16.34,0,0,1,9,1.23l3.86-2.43a1.06,1.06,0,0,1,1.62.86l.21,5.49A19.14,19.14,0,0,1,44,28.75a21.07,21.07,0,0,1-1.07,7A4.5,4.5,0,0,0,45.53,39c.49.08,1-.35,2.37-.32a4,4,0,0,1,2.42.69,26.85,26.85,0,1,0-4.26,5.84A10.51,10.51,0,0,1,39.76,40.78Z"/><path class="cls-2" d="M39.8,22.4l-2.36-.54c-.06-.3-.13-.6-.21-.89l2.44-.29-.06-.51-2.53.3q-.15-.46-.33-.9l2.77-1L39.34,18l-2.81,1.05a11.57,11.57,0,0,0-11.76-6.27,11.81,11.81,0,0,0-9.61,8.47L12.23,21l-.05.51L15,21.8c-.07.3-.12.6-.17.9l-2.6.19,0,.51,2.51-.18c0,.32,0,.63-.05,1l-2.22,1,.2.48,2-.9a10.14,10.14,0,0,0,.4,2.36c1.94,6.53,9.18,5.54,11.87,5.27s10.77-.76,10.61-8.43a14.43,14.43,0,0,0-.12-1.51l2.16.49Z"/></g></g></svg>