<svg xmlns="http://www.w3.org/2000/svg" xmlns:xlink="http://www.w3.org/1999/xlink" viewBox="0 0 53.5 53.5"><defs><style>.cls-1,.cls-2{fill:#fff;}.cls-1,.cls-3,.cls-5,.cls-6,.cls-7{fill-rule:evenodd;}.cls-3{fill:#05ec40;}.cls-4{mask:url(#mask);}.cls-5{fill:#00b52e;}.cls-6{fill:#004d3f;}.cls-7{fill:#fcff19;}</style><mask id="mask" x="13.49" y="6.75" width="26.52" height="40.01" maskUnits="userSpaceOnUse"><g id="mask-2"><path id="path-1" class="cls-1" d="M25.57,7l-10.9,5.57a2.4,2.4,0,0,0-1.18,1.94V25.42a2.38,2.38,0,0,0,1.18,1.93L26,33.17c.39.2.39.53,0,.73L14.67,39.71c-.65.34-.65.88,0,1.21l10.9,5.58a2.94,2.94,0,0,0,2.36,0l10.89-5.58A2.37,2.37,0,0,0,40,39V28.08a2.38,2.38,0,0,0-1.19-1.94L27.46,20.32c-.39-.2-.39-.52,0-.72l11.36-5.82c.66-.33.66-.87,0-1.21L27.93,7A2.86,2.86,0,0,0,25.57,7Z"/></g></mask></defs><g id="レイヤー_2" data-name="レイヤー 2"><g id="レイヤー_1-2" data-name="レイヤー 1"><circle id="circle" class="cls-2" cx="26.75" cy="26.75" r="26.75"/><g id="Rectangle"><g id="Mask-4" data-name="Mask"><path id="path-1-4" data-name="path-1" class="cls-3" d="M25.57,7l-10.9,5.57a2.4,2.4,0,0,0-1.18,1.94V25.42a2.38,2.38,0,0,0,1.18,1.93L26,33.17c.39.2.39.53,0,.73L14.67,39.71c-.65.34-.65.88,0,1.21l10.9,5.58a2.94,2.94,0,0,0,2.36,0l10.89-5.58A2.37,2.37,0,0,0,40,39V28.08a2.38,2.38,0,0,0-1.19-1.94L27.46,20.32c-.39-.2-.39-.52,0-.72l11.36-5.82c.66-.33.66-.87,0-1.21L27.93,7A2.86,2.86,0,0,0,25.57,7Z"/></g><g class="cls-4"><polygon class="cls-5" points="26.75 6.75 40.01 6.75 40.01 46.75 26.75 46.75 26.75 6.75"/></g><g class="cls-4"><path id="Mask-Copy" class="cls-6" d="M40,40.24,27.5,33.85c-.38-.2-.38-.52,0-.72L40,26.75Z"/></g><g class="cls-4"><path id="Mask-5" data-name="Mask" class="cls-7" d="M13.49,26.52,26,20.13c.39-.2.39-.52,0-.72L13.49,13Z"/></g></g></g></g></svg>