<svg xmlns="http://www.w3.org/2000/svg" viewBox="0 0 53.5 53.5"><defs><style>.cls-1{fill:#009287;}.cls-2{fill:#fff;fill-rule:evenodd;}</style></defs><g id="レイヤー_2" data-name="レイヤー 2"><g id="レイヤー_1-2" data-name="レイヤー 1"><rect class="cls-1" width="53.5" height="53.5" rx="26.75"/><path id="mark" class="cls-2" d="M24.27,29.1H17.58a5.88,5.88,0,0,1,0-11.75h7.81a2.35,2.35,0,0,1,0,4.7H17.46a1.18,1.18,0,0,0,0,2.35h6.69a5.88,5.88,0,1,1,0,11.75H14.06a2.35,2.35,0,1,1,0-4.7H24.27a1.18,1.18,0,1,0,0-2.35Zm4.95,7a7.06,7.06,0,0,0,3-4.7H36a1.17,1.17,0,0,0,1.16-1.18v-7A1.16,1.16,0,0,0,36,22.05H29.12A3.56,3.56,0,0,0,30,19.7a3.53,3.53,0,0,0-.89-2.35h8.05a4.66,4.66,0,0,1,4.62,4.7v9.4a4.67,4.67,0,0,1-4.62,4.7Z"/></g></g></svg>