<svg xmlns="http://www.w3.org/2000/svg" viewBox="0 0 53.5 53.5"><defs><style>.cls-1{fill:#1da1f2;}.cls-2{fill:#fff;}</style></defs><g id="レイヤー_2" data-name="レイヤー 2"><g id="レイヤー_1-2" data-name="レイヤー 1"><rect class="cls-1" width="53.5" height="53.5" rx="26.75"/><path class="cls-2" d="M22.37,39.33C33.12,39.33,39,30.42,39,22.7c0-.25,0-.5,0-.75a11.81,11.81,0,0,0,2.91-3,11.68,11.68,0,0,1-3.36.92,5.92,5.92,0,0,0,2.58-3.23A11.61,11.61,0,0,1,37.4,18a5.84,5.84,0,0,0-10.1,4,6.53,6.53,0,0,0,.14,1.33,16.56,16.56,0,0,1-12-6.11,5.86,5.86,0,0,0,1.81,7.81,5.85,5.85,0,0,1-2.64-.73v.08a5.84,5.84,0,0,0,4.68,5.73,5.63,5.63,0,0,1-2.63.1,5.83,5.83,0,0,0,5.46,4.06,11.76,11.76,0,0,1-7.26,2.51,10.59,10.59,0,0,1-1.39-.08,16.61,16.61,0,0,0,8.94,2.61"/></g></g></svg>