<svg xmlns="http://www.w3.org/2000/svg" viewBox="0 0 53.5 53.5"><defs><style>.cls-1{fill:#32b8e8;}.cls-2{fill:#fff;}</style></defs><g id="レイヤー_2" data-name="レイヤー 2"><g id="レイヤー_1-2" data-name="レイヤー 1"><rect class="cls-1" width="53.5" height="53.5" rx="26.75"/><path class="cls-2" d="M39,22.65q-.16,3.74-5.21,10.23-5.2,6.78-8.81,6.78c-1.49,0-2.75-1.37-3.78-4.13C20.54,33,19.86,30.48,19.17,28Q18,23.84,16.71,23.83a8,8,0,0,0-2,1.2l-1.2-1.55c1.25-1.1,2.5-2.21,3.73-3.33Q19.75,18,21,17.85q3-.29,3.67,4.09c.5,3.14.84,5.1,1,5.86.57,2.61,1.2,3.91,1.89,3.91.53,0,1.34-.84,2.41-2.53a10.08,10.08,0,0,0,1.72-3.87c.15-1.46-.42-2.19-1.72-2.19a4.73,4.73,0,0,0-1.89.42q1.88-6.18,7.19-6Q39.25,17.65,39,22.65Z"/></g></g></svg>