<svg xmlns="http://www.w3.org/2000/svg" viewBox="0 0 53.5 53.5"><defs><style>.cls-1{fill:red;}.cls-2{fill:#fff;}</style></defs><g id="レイヤー_2" data-name="レイヤー 2"><g id="レイヤー_1-2" data-name="レイヤー 1"><rect class="cls-1" width="53.5" height="53.5" rx="26.75"/><path class="cls-2" d="M41.17,19.51a3.77,3.77,0,0,0-2.65-2.65c-2.36-.64-11.77-.64-11.77-.64s-9.42,0-11.77.62a3.8,3.8,0,0,0-2.65,2.67,39.76,39.76,0,0,0-.62,7.24A39.49,39.49,0,0,0,12.33,34,3.77,3.77,0,0,0,15,36.64c2.38.64,11.77.64,11.77.64s9.41,0,11.77-.62A3.77,3.77,0,0,0,41.17,34a39.76,39.76,0,0,0,.62-7.24A38.12,38.12,0,0,0,41.17,19.51ZM23.75,31.26v-9l7.83,4.51Z"/></g></g></svg>