<svg xmlns="http://www.w3.org/2000/svg" viewBox="0 0 32.07 32.07"><defs><style>.cls-1{fill:#2d2d2b;}.cls-2{fill:none;}</style></defs><g id="レイヤー_2" data-name="レイヤー 2"><g id="レイヤー_1-2" data-name="レイヤー 1"><polygon class="cls-1" points="11.84 13.79 10.34 17.88 13.28 17.88 11.84 13.79"/><path class="cls-1" d="M21,15.5a2,2,0,0,0-2,1.91h4A2,2,0,0,0,21,15.5Z"/><path class="cls-1" d="M4,4V28H28V4ZM14.62,21.91l-1-2.6H10l-1,2.6H7l4-10.43h1.79l4,10.43ZM25,18.69h-6a2.08,2.08,0,0,0,2,1.93,2,2,0,0,0,1.82-1.05l1.69.47a3.76,3.76,0,0,1-3.59,2,4,4,0,1,1,0-8,3.84,3.84,0,0,1,4,4A6.32,6.32,0,0,1,25,18.69Z"/><rect class="cls-2" width="32.07" height="32.07"/></g></g></svg>