<svg xmlns="http://www.w3.org/2000/svg" viewBox="0 0 32.07 32.07"><defs><style>.cls-1{fill:none;}.cls-2{fill:#2d2d2b;}</style></defs><g id="レイヤー_2" data-name="レイヤー 2"><g id="レイヤー_1-2" data-name="レイヤー 1"><rect class="cls-1" width="32.07" height="32.07"/><path class="cls-2" d="M23.69,23.64a7.36,7.36,0,0,1-5.26-2.13,15.62,15.62,0,0,1-2.4-3,15.2,15.2,0,0,1-2.39,3,7.38,7.38,0,0,1-5.26,2.13H7.92A7.6,7.6,0,1,1,8,8.43a8.25,8.25,0,0,1,6,2.41A14.68,14.68,0,0,1,16,13.43a14.3,14.3,0,0,1,2.11-2.59,8.23,8.23,0,0,1,6-2.41,7.6,7.6,0,1,1,0,15.2Zm-6.12-7.71a17.22,17.22,0,0,0,2.67,3.66A4.77,4.77,0,0,0,24,21h.07a5,5,0,1,0,0-9.92A5.7,5.7,0,0,0,20,12.74,16,16,0,0,0,17.57,15.93ZM8,11.07A5,5,0,1,0,8,21H8a4.8,4.8,0,0,0,3.8-1.4,16.86,16.86,0,0,0,2.66-3.66,15.63,15.63,0,0,0-2.39-3.19A5.67,5.67,0,0,0,8,11.07Z"/><polygon class="cls-2" points="24.46 18.02 22.97 18.02 22.97 16.55 21.55 16.55 21.55 15.06 22.97 15.06 22.97 13.6 24.46 13.6 24.46 15.06 25.88 15.06 25.88 16.55 24.46 16.55 24.46 18.02"/><rect class="cls-2" x="5.83" y="15.04" width="4.68" height="1.54"/></g></g></svg>