<svg xmlns="http://www.w3.org/2000/svg" viewBox="0 0 32.07 32.07"><defs><style>.cls-1{fill:none;}.cls-2{fill:#2d2d2b;}</style></defs><g id="レイヤー_2" data-name="レイヤー 2"><g id="レイヤー_1-2" data-name="レイヤー 1"><rect class="cls-1" width="32.07" height="32.07"/><path class="cls-2" d="M7.1,4v.54H5.52V4H4.59V28h.93V26.52H7.1V28h.5V4Zm0,21.52H5.52v-2H7.1Zm0-3H5.52v-2H7.1Zm0-3H5.52v-2H7.1Zm0-3H5.52v-2H7.1Zm0-3H5.52v-2H7.1Zm0-3H5.52v-2H7.1Zm0-3H5.52v-2H7.1Z"/><rect class="cls-2" x="8.52" y="23.16" width="15" height="4.87"/><rect class="cls-2" x="8.52" y="9.55" width="15" height="12.47"/><path class="cls-2" d="M26.55,4v.54H25V4h-.5V28H25V26.52h1.57V28h.92V4Zm0,21.52H25v-2h1.57Zm0-3H25v-2h1.57Zm0-3H25v-2h1.57Zm0-3H25v-2h1.57Zm0-3H25v-2h1.57Zm0-3H25v-2h1.57Zm0-3H25v-2h1.57Z"/><rect class="cls-2" x="8.52" y="4.03" width="15" height="4.51"/></g></g></svg>