<svg xmlns="http://www.w3.org/2000/svg" viewBox="0 0 32.07 32.07"><defs><style>.cls-1{fill:none;}.cls-2{fill:#2d2d2b;}</style></defs><g id="レイヤー_2" data-name="レイヤー 2"><g id="レイヤー_1-2" data-name="レイヤー 1"><rect class="cls-1" width="32.07" height="32.07"/><g id="wyPg0S.tif"><path class="cls-2" d="M17.82,3.67c4.07.14,7.45,1.64,9.78,5.1a8.21,8.21,0,0,1-2.69,11.82c-.56.37-6.62,3.16-6.62,3.16l1.05,1.51a2.16,2.16,0,0,1-.15,3,2.62,2.62,0,0,1-3.36-.1,8.57,8.57,0,0,1-1.18-1.63c-1-1.39-3.13-4.72-3.13-4.72s6.88-3.07,10-4.51A4.6,4.6,0,0,0,24.4,12a5.38,5.38,0,0,0-3.08-3.78,6.71,6.71,0,0,0-6-.12c-2.09.92-4.2,1.77-6.3,2.64l-.27.12a1.57,1.57,0,0,0-1,1.56,1.74,1.74,0,0,0,1.43,1.44,2.57,2.57,0,0,0,1.59-.22c1.89-.82,3.79-1.65,5.7-2.44a2.56,2.56,0,0,1,2.91.48,1.81,1.81,0,0,1-.33,3c-1.29.64-2.63,1.19-4,1.76a20.77,20.77,0,0,1-3.6,1.47,6.9,6.9,0,0,1-7.18-2.28A5,5,0,0,1,5.41,8,31.62,31.62,0,0,1,8.77,6.44c1.57-.67,3.18-1.28,4.77-1.92A11,11,0,0,1,17.82,3.67Z"/></g></g></g></svg>