<svg xmlns="http://www.w3.org/2000/svg" viewBox="0 0 32.07 32.07"><defs><style>.cls-1{fill:none;}.cls-2{fill:#2d2d2b;}</style></defs><g id="レイヤー_2" data-name="レイヤー 2"><g id="レイヤー_1-2" data-name="レイヤー 1"><rect class="cls-1" width="32.07" height="32.07"/><path class="cls-2" d="M19,3.73l-7.76,7.76a5.2,5.2,0,0,0-1.12,1.69l-6,14.67,14.67-6a5.2,5.2,0,0,0,1.69-1.12L28.29,13Zm-.6,17.12-8.06,3.28L7.89,21.66l3.28-8.06a4,4,0,0,1,.66-1.06,3.57,3.57,0,0,1,1.7,1,4,4,0,0,1,1.15,2.18,2,2,0,0,0,1.66,1.66,4,4,0,0,1,2.18,1.16,3.61,3.61,0,0,1,1,1.56A3.82,3.82,0,0,1,18.42,20.85Z"/></g></g></svg>