<svg xmlns="http://www.w3.org/2000/svg" viewBox="0 0 32.07 32.07"><defs><style>.cls-1{fill:#2d2d2b;}.cls-2{fill:none;}</style></defs><g id="レイヤー_2" data-name="レイヤー 2"><g id="レイヤー_1-2" data-name="レイヤー 1"><path class="cls-1" d="M29.63,14.78,17.29,2.44a1.82,1.82,0,0,0-2.57,0L12.16,5l3.25,3.25A2.16,2.16,0,0,1,18.14,11l3.13,3.13A2.16,2.16,0,1,1,20,15.36l-2.92-2.92v7.68a2.22,2.22,0,0,1,.57.41,2.16,2.16,0,1,1-3.06,0,2.2,2.2,0,0,1,.71-.47V12.3a2,2,0,0,1-.71-.47,2.17,2.17,0,0,1-.47-2.37l-3.2-3.2L2.44,14.72a1.82,1.82,0,0,0,0,2.57L14.78,29.63a1.82,1.82,0,0,0,2.57,0L29.63,17.35a1.82,1.82,0,0,0,0-2.57Z"/><rect class="cls-2" width="32.07" height="32.07"/></g></g></svg>