<svg xmlns="http://www.w3.org/2000/svg" viewBox="0 0 32.03 32.03"><defs><style>.cls-1{fill:none;}.cls-2{fill:#2d2d2b;}</style></defs><g id="レイヤー_2" data-name="レイヤー 2"><g id="レイヤー_1-2" data-name="レイヤー 1"><rect class="cls-1" width="32.03" height="32.03"/><path class="cls-2" d="M16.08,29.54H16a3.21,3.21,0,0,0-.33-.12c-2.89-.8-5.79-1.61-8.69-2.4a.57.57,0,0,1-.5-.63c-.1-1.32-.23-2.64-.34-4-.14-1.58-.29-3.15-.43-4.73-.12-1.32-.23-2.63-.35-3.94L4.89,9C4.77,7.69,4.64,6.33,4.52,5L4.37,3.12H27.66c0,.4-.06.76-.09,1.12-.17,1.82-.33,3.63-.49,5.44-.14,1.55-.27,3.1-.41,4.65q-.27,3-.56,6.11c-.18,2-.35,4.07-.53,6.11a.4.4,0,0,1-.34.42c-2.55.69-5.09,1.4-7.64,2.11C17.09,29.22,16.58,29.39,16.08,29.54ZM9.6,18.23a1.31,1.31,0,0,0,0,.2l.36,4.1a.37.37,0,0,0,.32.39l5.48,1.53a.94.94,0,0,0,.44,0l5.56-1.54A.3.3,0,0,0,22,22.6c.12-1.36.25-2.71.37-4.07l.3-3.23c0-.48.07-1,.11-1.49H12.17l-.27-2.93h.45l10.37,0c.28,0,.38-.07.4-.37,0-.75.12-1.5.2-2.24,0-.39,0-.39-.35-.39H9l-.38,0c0,.5.1,1,.14,1.44.21,2.35.43,4.69.63,7,0,.34.15.39.45.39h9.65a1.33,1.33,0,0,1,0,.26c-.09,1.08-.19,2.16-.27,3.23a.35.35,0,0,1-.32.33c-.92.24-1.82.49-2.73.72a.94.94,0,0,1-.44,0l-2.73-.72a.36.36,0,0,1-.32-.39c0-.67-.12-1.34-.18-2Z"/></g></g></svg>