<svg xmlns="http://www.w3.org/2000/svg" viewBox="0 0 32.07 32.07"><defs><style>.cls-1{fill:#2d2d2b;}.cls-2{fill:none;}</style></defs><g id="レイヤー_2" data-name="レイヤー 2"><g id="レイヤー_1-2" data-name="レイヤー 1"><path class="cls-1" d="M17.92,15.75a2.21,2.21,0,0,0-2,2.35A2.21,2.21,0,0,0,18,20.38a2.11,2.11,0,0,0,1.87-1.29V17.25A2.5,2.5,0,0,0,17.92,15.75Z"/><path class="cls-1" d="M4,4V28H28V4Zm8.41,17.88h-2V11.48h2Zm9.06.1a1.27,1.27,0,0,1-1.3-1.44,3.07,3.07,0,0,1-2.67,1.49,3.75,3.75,0,0,1-3.66-4c0-2.39,1.61-4,3.44-4a3,3,0,0,1,2.6,1.48V11.18h2v8.47c0,.2.29.58.45.59v1.67h0A4.26,4.26,0,0,1,21.5,22Z"/><rect class="cls-2" width="32.07" height="32.07"/></g></g></svg>