<svg xmlns="http://www.w3.org/2000/svg" viewBox="0 0 32.07 32.07"><defs><style>.cls-1{fill:none;}.cls-2{fill:#2d2d2b;}</style></defs><g id="レイヤー_2" data-name="レイヤー 2"><g id="レイヤー_1-2" data-name="レイヤー 1"><rect class="cls-1" width="32.07" height="32.07"/><path class="cls-2" d="M27.33,28H4.73a.68.68,0,0,1-.68-.69V4.73a.68.68,0,0,1,.68-.68h22.6a.69.69,0,0,1,.69.68v22.6A.69.69,0,0,1,27.33,28Zm-9-4.2a3.83,3.83,0,0,0,1.54,1.66,5.17,5.17,0,0,0,4.26.36,2.81,2.81,0,0,0,1.73-1.49,3.26,3.26,0,0,0,.29-1.6,2.93,2.93,0,0,0-1-2.16,6.67,6.67,0,0,0-1.66-1c-.45-.2-.91-.39-1.35-.6a3.12,3.12,0,0,1-.64-.43A1,1,0,0,1,21.87,17a1.36,1.36,0,0,1,1.48.41c.13.15.24.32.36.48l1.74-1.11s0,0,0,0a3.18,3.18,0,0,0-1.57-1.48,4.14,4.14,0,0,0-2.6-.17,2.87,2.87,0,0,0-2,1.51,3.12,3.12,0,0,0-.3,1.68A2.93,2.93,0,0,0,19.68,20,4.32,4.32,0,0,0,21.13,21c.55.26,1.11.49,1.67.75a3.75,3.75,0,0,1,.66.4,1,1,0,0,1,.36,1.07,1,1,0,0,1-.75.74,2.35,2.35,0,0,1-2.68-.85l-.28-.39Zm-7.95.24a.42.42,0,0,0,0,.06A3.43,3.43,0,0,0,12,25.79a4.32,4.32,0,0,0,2.75.21,2.69,2.69,0,0,0,2-1.55,4.18,4.18,0,0,0,.33-1.78V15.06H14.82v.17q0,3.69,0,7.37a3.81,3.81,0,0,1,0,.59.91.91,0,0,1-.45.76,1.37,1.37,0,0,1-1.42-.06,1.59,1.59,0,0,1-.49-.54l-.24-.4Z"/></g></g></svg>