<svg xmlns="http://www.w3.org/2000/svg" viewBox="0 0 32.07 32.07"><defs><style>.cls-1{fill:#2d2d2b;}.cls-2{fill:none;}</style></defs><g id="レイヤー_2" data-name="レイヤー 2"><g id="レイヤー_1-2" data-name="レイヤー 1"><path class="cls-1" d="M13.28,13.26H11v3.37h2.35c.71,0,1.3-.66,1.3-1.68A1.53,1.53,0,0,0,13.28,13.26Z"/><path class="cls-1" d="M4.05,4.05V28H28v-24Zm9.43,14.36H11V21.9H9V11.48h4.42A3.47,3.47,0,0,1,16.73,15,3.36,3.36,0,0,1,13.48,18.41Zm7.37,3.64a5.57,5.57,0,0,1-3.48-1.19l.74-1.23a5.07,5.07,0,0,0,2.7,1c.74,0,1.26-.31,1.26-.85s-1.09-.88-1.69-1-2.74-.45-2.74-2.14,1.41-2.54,3-2.54a4.29,4.29,0,0,1,3,1l-.79,1.19a4.06,4.06,0,0,0-2.23-.85c-.72,0-1.18.31-1.18.87s1.23.9,1.51,1c.53.13,3,.51,3,2.31C24,21.75,21.81,22.05,20.85,22.05Z"/><rect class="cls-2" width="32.07" height="32.07"/></g></g></svg>