<svg xmlns="http://www.w3.org/2000/svg" viewBox="0 0 32.07 32.07"><defs><style>.cls-1{fill:none;}.cls-2{fill:#2d2d2b;}</style></defs><g id="レイヤー_2" data-name="レイヤー 2"><g id="レイヤー_1-2" data-name="レイヤー 1"><rect class="cls-1" width="32.07" height="32.07"/><path class="cls-2" d="M16.41,3.34a18.65,18.65,0,0,0-2.92.26c-2.57.45-3,1.39-3,3.11V9.39h6.1v1.08h-9a3.81,3.81,0,0,0-3.81,3,11,11,0,0,0,0,6.08c.43,1.77,1.48,3,3.24,3H9.42V19.31a3.91,3.91,0,0,1,3.78-3.82h5.35a3.06,3.06,0,0,0,3.05-3.05V6.71A3.38,3.38,0,0,0,18.55,3.6,9.28,9.28,0,0,0,16.41,3.34ZM13,5.73a1.15,1.15,0,1,1-1.14,1.14A1.15,1.15,0,0,1,13,5.73Zm9.67,3.69v3.34a3.91,3.91,0,0,1-3.79,3.81H13.52a3.06,3.06,0,0,0-3,3.06v5.72a3.38,3.38,0,0,0,3,3.12,8.61,8.61,0,0,0,2.13.25,17.59,17.59,0,0,0,2.93-.25c2.56-.45,3-1.39,3-3.12V22.68H15.49V21.6h9a3.83,3.83,0,0,0,3.82-3.05,11,11,0,0,0,0-6.08c-.43-1.77-1.48-3.05-3.24-3.05ZM19.09,24.05a1.15,1.15,0,1,1-1.15,1.14A1.15,1.15,0,0,1,19.09,24.05Z"/></g></g></svg>