<svg xmlns="http://www.w3.org/2000/svg" viewBox="0 0 63.56 29.66"><defs><style>.chige_logo_svg{fill:#fff;}</style></defs><g id="レイヤー_2" data-name="レイヤー 2"><g id="レイヤー_1-2" data-name="レイヤー 1"><g id="レイヤー_2-2" data-name="レイヤー 2"><g id="レイヤー_1-2-2" data-name="レイヤー 1-2"><path class="chige_logo_svg" d="M20.83,7.06v3.37c0,.42,0,.42-.43.42H14.51c-.42,0-.42,0-.42.42v1.48c0,.45,0,.45.44.45H20.3c.5,0,.5,0,.5.51v6.65a.74.74,0,0,1-.29.65,11.85,11.85,0,0,1-7,3,12,12,0,0,1-3-23.83,11.92,11.92,0,0,1,10.07,2.9.67.67,0,0,1,.25.57C20.82,4.79,20.83,5.92,20.83,7.06Z"/><path class="chige_logo_svg" d="M40,29.52l5.73-5.35-.33-.05a6,6,0,1,1,6.44-7,11.73,11.73,0,0,1,.07,1.67V29.26c0,.31-.07.4-.4.4H40Z"/><path class="chige_logo_svg" d="M23.07,5.61l.15.22,9.05,14.49a1.13,1.13,0,0,1,.18.59v2.83c0,.27-.08.37-.36.37H23.3c-.27,0-.37-.08-.37-.36V5.91a1.4,1.4,0,0,1,0-.29Z"/><path class="chige_logo_svg" d="M58.51,21.28,60.44,24a9.36,9.36,0,0,1-1.27.3,5,5,0,1,1,4.34-5.72,5.29,5.29,0,0,1-.2,2.34.43.43,0,0,1-.48.34H58.51Z"/><path class="chige_logo_svg" d="M38,19.69v4c0,.28-.07.39-.36.38H34.83c-.27,0-.36-.08-.36-.36V15.55c0-.27.08-.38.36-.37h2.8c.26,0,.35.08.34.35C38,16.94,38,18.32,38,19.69Z"/><path class="chige_logo_svg" d="M38.67,11.11a2.49,2.49,0,1,1-2.51-2.5,2.48,2.48,0,0,1,2.51,2.5Z"/></g></g></g></g></svg>