<svg width="14" height="14" viewBox="0 0 14 14" fill="none" xmlns="http://www.w3.org/2000/svg">
<path class="link_svg" d="M8.08987 9.69651C8.06344 9.67034 8.02775 9.65566 7.99055 9.65566C7.95336 9.65566 7.91767 9.67034 7.89124 9.69651L5.84866 11.7391C4.90295 12.6848 3.30686 12.785 2.26272 11.7391C1.21682 10.6932 1.31702 9.09885 2.26272 8.15315L4.3053 6.11057C4.35979 6.05608 4.35979 5.96643 4.3053 5.91194L3.60569 5.21233C3.57926 5.18616 3.54357 5.17148 3.50637 5.17148C3.46918 5.17148 3.43349 5.18616 3.40706 5.21233L1.36448 7.25491C-0.122632 8.74202 -0.122632 11.1485 1.36448 12.6338C2.85159 14.1192 5.25803 14.1209 6.74338 12.6338L8.78596 10.5912C8.84045 10.5367 8.84045 10.4471 8.78596 10.3926L8.08987 9.69651ZM12.6356 1.36448C11.1485 -0.122632 8.74202 -0.122632 7.25666 1.36448L5.21233 3.40706C5.18616 3.43349 5.17148 3.46918 5.17148 3.50637C5.17148 3.54357 5.18616 3.57926 5.21233 3.60569L5.91018 4.30354C5.96467 4.35803 6.05432 4.35803 6.10881 4.30354L8.15139 2.26096C9.0971 1.31526 10.6932 1.21506 11.7373 2.26096C12.7832 3.30686 12.683 4.9012 11.7373 5.8469L9.69475 7.88948C9.66858 7.91591 9.6539 7.9516 9.6539 7.98879C9.6539 8.02599 9.66858 8.06168 9.69475 8.08811L10.3944 8.78772C10.4489 8.84221 10.5385 8.84221 10.593 8.78772L12.6356 6.74514C14.1209 5.25803 14.1209 2.85159 12.6356 1.36448ZM8.72444 4.54436C8.69801 4.51819 8.66232 4.50351 8.62512 4.50351C8.58793 4.50351 8.55224 4.51819 8.52581 4.54436L4.54436 8.52405C4.51819 8.55048 4.50351 8.58617 4.50351 8.62336C4.50351 8.66056 4.51819 8.69625 4.54436 8.72268L5.24045 9.41877C5.29495 9.47327 5.3846 9.47327 5.43909 9.41877L9.41877 5.43909C9.47327 5.3846 9.47327 5.29495 9.41877 5.24045L8.72444 4.54436Z"/>
</svg>
